<svg width="48" height="48" viewBox="0 0 48 48" fill="none" xmlns="http://www.w3.org/2000/svg">
  <defs>
    <linearGradient id="shieldGrad" x1="0%" y1="0%" x2="100%" y2="100%">
      <stop offset="0%" stopColor="#0284c7" />
      <stop offset="50%" stopColor="#2563eb" />
      <stop offset="100%" stopColor="#4f46e5" />
    </linearGradient>
    <linearGradient id="goldGrad" x1="0%" y1="0%" x2="100%" y2="100%">
      <stop offset="0%" stopColor="#fde047" />
      <stop offset="50%" stopColor="#eab308" />
      <stop offset="100%" stopColor="#ca8a04" />
    </linearGradient>
    <linearGradient id="emeraldGrad" x1="0%" y1="100%" x2="100%" y2="0%">
      <stop offset="0%" stopColor="#10b981" />
      <stop offset="100%" stopColor="#34d399" />
    </linearGradient>
  </defs>
  <path
    d="M24 4L40 10V22C40 32.5 33.2 41.8 24 44C14.8 41.8 8 32.5 8 22V10L24 4Z"
    fill="url(#shieldGrad)"
    stroke="#38bdf8"
    stroke-width="2"
  />
  <path
    d="M24 8L36 12.8V22C36 30.2 30.8 37.6 24 39.5C17.2 37.6 12 30.2 12 22V12.8L24 8Z"
    fill="#0f172a"
    fill-opacity="0.8"
    stroke="#1e293b"
    stroke-width="1"
  />
  <path
    d="M16 30C19 30 22 28 24 24C26 20 28 16 33 15"
    stroke="url(#emeraldGrad)"
    stroke-width="3"
    stroke-linecap="round"
  />
  <circle cx="33" cy="15" r="3" fill="#34d399" />
  <path
    d="M24 16L27.5 21L24 26L20.5 21L24 16Z"
    fill="url(#goldGrad)"
    stroke="#fef08a"
    stroke-width="1"
  />
</svg>
